<?xml version="1.0" encoding="utf-8"?>
<!-- Generator: Adobe Illustrator 16.0.0, SVG Export Plug-In . SVG Version: 6.00 Build 0)  -->
<!DOCTYPE svg PUBLIC "-//W3C//DTD SVG 1.1//EN" "http://www.w3.org/Graphics/SVG/1.1/DTD/svg11.dtd">
<svg version="1.1" id="Layer_1" xmlns="http://www.w3.org/2000/svg" xmlns:xlink="http://www.w3.org/1999/xlink" x="0px" y="0px"
	 width="16px" height="16px" viewBox="412 412 16 16" enable-background="new 412 412 16 16" xml:space="preserve">
<path fill-rule="evenodd" clip-rule="evenodd" fill="#A0A5AA" d="M412,422.624c0.441-0.885,0.861-1.725,1.279-2.562
	c0.177-0.352,0.354-0.701,0.527-1.053c0.039-0.085,0.095-0.137,0.174-0.182c1.966-1.007,3.933-2.02,5.897-3.033
	c0.11-0.056,0.195-0.063,0.306-0.004c1.473,0.766,2.946,1.531,4.42,2.295c0.48,0.247,0.963,0.496,1.444,0.74
	c0.079,0.041,0.146,0.081,0.188,0.167c0.586,1.179,1.174,2.355,1.762,3.532c0.005,0.014,0.01,0.027,0.025,0.068
	c-0.548-0.297-1.071-0.581-1.597-0.866c-1.169-0.631-2.341-1.267-3.511-1.9c-0.911-0.492-1.826-0.983-2.736-1.483
	c-0.107-0.06-0.182-0.055-0.281,0c-1.877,1.02-3.758,2.039-5.638,3.056C413.524,421.8,412.783,422.199,412,422.624z"/>
<path fill-rule="evenodd" clip-rule="evenodd" fill="#A0A5AA" d="M425.371,417.196c0.083,0.263,0.244,0.495,0.368,0.785
	c-0.253-0.135-0.472-0.253-0.693-0.37c-1.383-0.75-2.766-1.496-4.147-2.247c-0.248-0.134-0.496-0.269-0.744-0.404
	c-0.064-0.033-0.113-0.041-0.187-0.002c-1.786,0.972-3.575,1.939-5.364,2.906c-0.066,0.036-0.145,0.132-0.209,0.07
	c-0.053-0.048,0.039-0.125,0.07-0.188c0.372-0.75,0.749-1.5,1.123-2.248c0.044-0.095,0.103-0.158,0.195-0.206
	c1.384-0.71,2.767-1.42,4.148-2.134c0.094-0.049,0.162-0.042,0.248,0.002c1.387,0.722,2.773,1.439,4.163,2.156
	c0.071,0.038,0.115,0.09,0.15,0.158c0.066,0.139,0.143,0.274,0.215,0.414C424.932,416.323,425.152,416.761,425.371,417.196z"/>
<path fill-rule="evenodd" clip-rule="evenodd" fill="#A0A5AA" d="M415.786,421.438c0.063,0.518,0.122,1.014,0.181,1.511
	c0.09,0.732,0.174,1.466,0.265,2.198c0.019,0.127-0.026,0.313,0.073,0.373c0.104,0.062,0.27,0.024,0.407,0.024
	c2.288,0,4.577-0.005,6.866,0.001c0.135,0,0.182-0.026,0.201-0.174c0.111-0.845,0.24-1.688,0.361-2.531
	c0.066-0.454,0.13-0.91,0.197-1.39c0.304,0.218,0.594,0.428,0.881,0.635c0.047,0.032,0.035,0.073,0.027,0.122
	c-0.235,1.368-0.473,2.734-0.696,4.104c-0.023,0.122-0.067,0.142-0.175,0.142c-2.92,0.043-5.838,0.043-8.757,0
	c-0.11,0-0.148-0.04-0.164-0.14c-0.198-1.341-0.398-2.679-0.596-4.021c-0.045-0.301-0.04-0.303,0.226-0.455
	C415.313,421.708,415.542,421.578,415.786,421.438z"/>
<path fill-rule="evenodd" clip-rule="evenodd" fill="#A0A5AA" d="M412.227,420.275c0-0.008,0-0.015,0-0.022
	c0.008,0.002,0.014,0.002,0.021,0.004c-0.009,0.008-0.015,0.011-0.024,0.017L412.227,420.275z"/>
<path fill="none" enable-background="new    " d="z"/>
</svg>
