<?xml version="1.0" encoding="utf-8"?>
<!-- Generator: Adobe Illustrator 16.0.0, SVG Export Plug-In . SVG Version: 6.00 Build 0)  -->
<!DOCTYPE svg PUBLIC "-//W3C//DTD SVG 1.1//EN" "http://www.w3.org/Graphics/SVG/1.1/DTD/svg11.dtd">
<svg version="1.1" id="Layer_2" xmlns="http://www.w3.org/2000/svg" xmlns:xlink="http://www.w3.org/1999/xlink" x="0px" y="0px"
	 width="280px" height="280px" viewBox="0 0 280 280" enable-background="new 0 0 280 280" xml:space="preserve">
<path fill="#DA1B21" d="M216.566,183.24c9.703-13.348,17.829-51.18,11.614-63.778l-67.913-2.623
	c-0.318,6.21-2.508,12.31-6.472,17.385L216.566,183.24z"/>
<path fill="#EE4524" d="M224.588,99.085c-1.1-15.416-18.821-38.179-31.155-50.172c-8.04,5.599-21.603,21.755-28.828,29.383
	c-7.342,7.75-12.302,11.086-13.737,14.777c0.86,0.829,1.682,1.716,2.457,2.662c3.492,4.259,5.65,9.174,6.529,14.239L224.588,99.085z
	"/>
<path fill="#A3191D" d="M144.54,88.371l31.082-51.711c-14.294-11.465-40.52-14.917-54.938-12.491
	c-0.335,1.869-0.337,1.334-0.391,3.628l6.51,56.776C132.914,84.044,139.113,85.337,144.54,88.371"/>
<path fill="#EE4524" d="M119.386,86.153L99.745,27.976C79.651,36.64,71.998,41.201,56.677,58.676l48.305,37.915
	c1.423-1.865,3.083-3.598,4.978-5.15C112.851,89.069,116.047,87.313,119.386,86.153"/>
<path fill="#DA1B21" d="M101.492,102.398c-13.69-5.192-45.759-23.495-55.223-24.667c-7.945,13.222-6.921,36.092-1.523,51.781
	c4.897,0.231,43.304-6.308,54.37-9.07C98.083,114.349,98.904,108.041,101.492,102.398"/>
<path fill="#F48C22" d="M96.256,171.054l17.645-29.198c-3.059-1.793-5.856-4.148-8.235-7.05c-1.782-2.174-3.214-4.516-4.31-6.965
	l-46.893,18.843C64.26,161.959,83.636,170.954,96.256,171.054"/>
<path fill="#DA1B21" d="M120.471,144.734c-3.06,6.576-7.6,20.002-7.166,25.314c20.154-8.831,23.34-14.431,34.837-30.251
	C139.993,146.003,129.66,147.541,120.471,144.734"/>
<path fill="#039147" d="M129.812,90.023c13.805,0,24.999,11.192,24.999,24.999s-11.191,24.999-24.999,24.999
	c-13.807,0-24.999-11.192-24.999-24.999S116.006,90.023,129.812,90.023"/>
<path d="M260.075,228.487v-24.381h3.608v3.316c2.829-1.949,5.804-3.234,8.924-3.854v3.707c-1.365,0.259-2.787,0.667-4.266,1.221
	c-1.48,0.549-2.61,1.038-3.391,1.461l-1.218,0.635v17.895H260.075L260.075,228.487z M237.011,216.176
	c0,3.561,0.431,6.055,1.292,7.484s2.666,2.146,5.414,2.146c2.746,0,4.542-0.707,5.387-2.122c0.846-1.413,1.27-3.908,1.27-7.484
	c0-3.577-0.473-6.037-1.415-7.388c-0.943-1.349-2.689-2.023-5.241-2.023c-2.555,0-4.307,0.675-5.268,2.023
	C237.489,210.162,237.011,212.615,237.011,216.176z M233.256,216.249c0-4.452,0.796-7.674,2.39-9.657
	c1.593-1.981,4.282-2.973,8.071-2.973c3.787,0,6.469,0.991,8.044,2.973c1.577,1.983,2.366,5.205,2.366,9.657
	c0,4.453-0.747,7.688-2.243,9.702c-1.496,2.016-4.226,3.023-8.193,3.023c-3.965,0-6.696-1.008-8.191-3.023
	C234.005,223.938,233.256,220.702,233.256,216.249z M219.31,206.888c-3.542,0-5.314,1.234-5.314,3.705
	c0,1.137,0.405,1.941,1.219,2.412c0.813,0.474,2.667,0.96,5.561,1.464c2.892,0.504,4.939,1.212,6.143,2.121
	c1.203,0.91,1.806,2.615,1.806,5.119c0,2.505-0.805,4.341-2.415,5.512c-1.61,1.168-3.958,1.754-7.046,1.754
	c-2.015,0-4.389-0.227-7.12-0.682l-1.462-0.244l0.194-3.169c3.706,0.554,6.502,0.827,8.388,0.827c1.884,0,3.322-0.299,4.314-0.902
	c0.992-0.6,1.487-1.608,1.487-3.021c0-1.414-0.423-2.373-1.268-2.877c-0.846-0.505-2.697-0.983-5.559-1.438
	c-2.86-0.456-4.895-1.122-6.097-1.998c-1.202-0.879-1.803-2.504-1.803-4.877c0-2.374,0.838-4.13,2.511-5.268
	c1.673-1.136,3.764-1.706,6.269-1.706c1.98,0,4.467,0.228,7.458,0.682l1.366,0.245l-0.098,3.12
	C224.235,207.146,221.391,206.888,219.31,206.888z M200.833,198.65v-4.235h3.65v4.235H200.833z M200.976,228.487v-24.381h3.658
	v24.381H200.976L200.976,228.487z M175.23,204.106h3.899l5.706,21.21h1.804l5.9-21.21h3.757l-6.877,24.381h-7.313L175.23,204.106z
	 M156.115,224.099c0.52,0.618,1.072,1.039,1.658,1.269c0.586,0.227,1.341,0.34,2.267,0.34c0.928,0,1.968-0.153,3.12-0.463
	c1.157-0.309,2.059-0.608,2.708-0.901l0.976-0.44v-16.528c-2.08-0.39-4.017-0.587-5.802-0.587c-2.472,0-4.194,0.789-5.171,2.365
	c-0.975,1.577-1.462,4.023-1.462,7.341C154.409,220.264,154.979,222.8,156.115,224.099z M170.451,193.477v35.011h-3.607v-1.658
	c-2.505,1.433-4.975,2.146-7.413,2.146c-1.3,0-2.438-0.163-3.414-0.487c-0.973-0.323-1.883-0.911-2.729-1.756
	c-1.757-1.755-2.633-4.997-2.633-9.727c0-4.731,0.788-8.144,2.364-10.239c1.577-2.099,4.186-3.146,7.825-3.146
	c1.886,0,3.885,0.211,5.999,0.634v-10.776H170.451L170.451,193.477z M132.71,197.963l-5.121,18.479h12.774l-5.119-18.479H132.71z
	 M120.615,228.487l9.266-33.741h8.193l9.263,33.741h-3.705l-2.438-8.68H126.76l-2.438,8.68H120.615z M114.24,214.878
	c0-2.99-0.479-5.104-1.438-6.34c-0.961-1.235-2.52-1.854-4.683-1.854c-2.163,0-3.788,0.652-4.878,1.951
	c-1.087,1.301-1.65,3.384-1.682,6.243H114.24z M115.557,225.464l1.415-0.148l0.098,2.881c-3.707,0.519-6.878,0.778-9.512,0.778
	c-3.511,0-5.998-1.016-7.462-3.048c-1.461-2.031-2.194-5.193-2.194-9.487c0-8.553,3.398-12.827,10.193-12.827
	c3.286,0,5.74,0.918,7.365,2.757c1.627,1.835,2.439,4.722,2.439,8.656l-0.196,2.782h-16.095c0,2.696,0.487,4.696,1.464,5.998
	c0.974,1.3,2.674,1.95,5.096,1.95C110.59,225.756,113.054,225.658,115.557,225.464z M73.66,204.1h3.901l5.708,21.216h1.805
	l5.903-21.216h3.756l-6.878,24.387h-7.316L73.66,204.1z M53.321,216.172c0,3.561,0.431,6.058,1.293,7.487
	c0.861,1.43,2.666,2.146,5.415,2.146c2.747,0,4.542-0.707,5.388-2.123c0.846-1.414,1.269-3.91,1.269-7.486
	c0-3.577-0.471-6.039-1.414-7.39c-0.943-1.349-2.692-2.023-5.243-2.023c-2.554,0-4.31,0.675-5.269,2.023
	C53.799,210.156,53.321,212.611,53.321,216.172z M49.566,216.245c0-4.454,0.795-7.675,2.388-9.659
	c1.595-1.982,4.285-2.974,8.075-2.974c3.787,0,6.469,0.991,8.046,2.974c1.578,1.984,2.367,5.205,2.367,9.659
	s-0.749,7.69-2.244,9.705c-1.496,2.017-4.228,3.024-8.194,3.024c-3.967,0-6.698-1.008-8.194-3.024
	C50.313,223.936,49.566,220.699,49.566,216.245z M10.544,228.486v-33.752h6.78l9.561,28.534l9.559-28.534h6.779v33.752h-3.755
	v-29.752h-0.683l-9.803,28.533h-4.196l-9.803-28.533h-0.682v29.752H10.544z"/>
<g>
	<path d="M153.506,241.092h2.22v15.329h7.346v1.862h-9.565V241.092z"/>
	<path d="M166.363,252.519c0.051,3.035,1.99,4.285,4.233,4.285c1.607,0,2.577-0.28,3.419-0.639l0.383,1.607
		c-0.791,0.357-2.143,0.766-4.107,0.766c-3.8,0-6.07-2.5-6.07-6.224s2.193-6.657,5.79-6.657c4.03,0,5.102,3.546,5.102,5.815
		c0,0.459-0.051,0.816-0.077,1.046H166.363z M172.944,250.911c0.025-1.428-0.587-3.647-3.112-3.647c-2.27,0-3.265,2.092-3.442,3.647
		H172.944z"/>
	<path d="M184.732,258.283l-0.18-1.557h-0.076c-0.688,0.97-2.016,1.837-3.774,1.837c-2.5,0-3.775-1.76-3.775-3.546
		c0-2.984,2.652-4.616,7.423-4.592v-0.254c0-1.021-0.281-2.857-2.807-2.857c-1.148,0-2.347,0.357-3.213,0.918l-0.511-1.479
		c1.021-0.664,2.499-1.097,4.056-1.097c3.775,0,4.693,2.575,4.693,5.05v4.616c0,1.071,0.051,2.118,0.204,2.96H184.732z
		 M184.4,251.982c-2.449-0.051-5.229,0.383-5.229,2.78c0,1.454,0.969,2.144,2.116,2.144c1.607,0,2.627-1.021,2.984-2.066
		c0.077-0.229,0.128-0.485,0.128-0.715V251.982z"/>
	<path d="M200.854,240.173v14.921c0,1.098,0.026,2.348,0.102,3.189h-2.014l-0.103-2.143h-0.051
		c-0.688,1.377-2.193,2.423-4.209,2.423c-2.984,0-5.28-2.525-5.28-6.274c-0.024-4.106,2.525-6.632,5.536-6.632
		c1.887,0,3.162,0.893,3.724,1.887h0.051v-7.371H200.854z M198.609,250.963c0-0.281-0.025-0.664-0.102-0.944
		c-0.332-1.428-1.557-2.602-3.24-2.602c-2.321,0-3.697,2.04-3.697,4.771c0,2.499,1.223,4.565,3.646,4.565
		c1.505,0,2.883-0.995,3.291-2.679c0.076-0.306,0.102-0.612,0.102-0.97V250.963z"/>
	<path d="M204.274,255.987c0.663,0.434,1.836,0.893,2.959,0.893c1.632,0,2.397-0.815,2.397-1.837c0-1.071-0.638-1.657-2.296-2.27
		c-2.219-0.791-3.265-2.016-3.265-3.494c0-1.989,1.607-3.622,4.26-3.622c1.25,0,2.347,0.356,3.036,0.765l-0.562,1.633
		c-0.485-0.306-1.378-0.714-2.525-0.714c-1.327,0-2.066,0.765-2.066,1.684c0,1.021,0.739,1.479,2.347,2.092
		c2.143,0.815,3.239,1.887,3.239,3.724c0,2.167-1.684,3.698-4.617,3.698c-1.352,0-2.602-0.331-3.468-0.842L204.274,255.987z"/>
	<path d="M220.168,241.092h9.259v1.861h-7.039v5.714h6.503v1.837h-6.503v7.779h-2.22V241.092z"/>
	<path d="M242.897,252.009c0,4.565-3.163,6.555-6.147,6.555c-3.341,0-5.918-2.449-5.918-6.352c0-4.132,2.704-6.555,6.122-6.555
		C240.5,245.657,242.897,248.232,242.897,252.009z M233.104,252.136c0,2.704,1.555,4.744,3.748,4.744c2.143,0,3.75-2.016,3.75-4.795
		c0-2.092-1.046-4.744-3.698-4.744S233.104,249.789,233.104,252.136z"/>
	<path d="M245.73,249.789c0-1.454-0.024-2.704-0.102-3.852h1.964l0.077,2.424h0.102c0.561-1.659,1.913-2.704,3.418-2.704
		c0.256,0,0.434,0.025,0.638,0.076v2.117c-0.229-0.051-0.459-0.077-0.765-0.077c-1.582,0-2.704,1.2-3.011,2.884
		c-0.051,0.306-0.103,0.662-0.103,1.045v6.581h-2.219V249.789z"/>
	<path d="M254.175,249.279c0-1.276-0.025-2.321-0.103-3.342h1.965l0.102,1.989h0.076c0.689-1.173,1.837-2.27,3.878-2.27
		c1.684,0,2.959,1.021,3.494,2.475h0.051c0.383-0.689,0.868-1.225,1.378-1.607c0.74-0.562,1.556-0.867,2.729-0.867
		c1.633,0,4.056,1.071,4.056,5.356v7.27h-2.193v-6.989c0-2.372-0.867-3.801-2.678-3.801c-1.275,0-2.271,0.944-2.652,2.041
		c-0.103,0.306-0.18,0.714-0.18,1.123v7.626h-2.193v-7.396c0-1.965-0.867-3.394-2.575-3.394c-1.403,0-2.424,1.122-2.781,2.245
		c-0.127,0.331-0.179,0.714-0.179,1.097v7.448h-2.193V249.279z"/>
</g>
</svg>
